# xmcd
#
# Track frame offsets: 
#        150
#        29480
#        52015
#        69316
#        94763
#        111211
#        134527
#        152401
#        172149
#        191000
#        208678
#
# Disc length: 3052 seconds
#
# Revision: 7
# Processed by: cddbd v1.5.2PL0 Copyright (c) Steve Scherf et al.
# Submitted via: ExactAudioCopy v1.0b3
#
DISCID=9e0bea0b
DTITLE=Meat Loaf - Blind Before I Stop (2014 remaster)
DYEAR=1986
DGENRE=Rock-Pop
TTITLE0=Execution Day
TTITLE1=Rock 'N' Roll Mercenaries
TTITLE2=Getting Away With Murder
TTITLE3=One More Kiss (Night Of The Soft Parade)
TTITLE4=Blind Before I Stop
TTITLE5=Burning Down
TTITLE6=Standing On The Outside
TTITLE7=Masculine
TTITLE8=A Man And A Woman
TTITLE9=Special Girl
TTITLE10=Rock 'N' Roll Hero
EXTD=YEAR: 1986
EXTT0=
EXTT1=
EXTT2=
EXTT3=
EXTT4=
EXTT5=
EXTT6=
EXTT7=
EXTT8=
EXTT9=
EXTT10=
PLAYORDER=
